<?xml version="1.0" encoding="UTF-8" standalone="no"?>
<!DOCTYPE svg PUBLIC "-//W3C//DTD SVG 1.1//EN" "http://www.w3.org/Graphics/SVG/1.1/DTD/svg11.dtd">
<svg width="100%" height="100%" viewBox="0 0 1023 541" version="1.1" xmlns="http://www.w3.org/2000/svg" xmlns:xlink="http://www.w3.org/1999/xlink" xml:space="preserve" xmlns:serif="http://www.serif.com/" style="fill-rule:evenodd;clip-rule:evenodd;">
    <path d="M247,7L247,237.251C247,255.93 262.069,271.112 280.748,271.25L483.051,272.75C501.73,272.888 516.799,288.07 516.799,306.749L516.799,991.5M516.799,1123.5L516.799,1549C516.799,1567.78 501.577,1583 482.799,1583L133,1583C114.222,1583 99,1598.22 99,1617L99,2940.32C99,2958.97 114.025,2974.14 132.674,2974.32L483.486,2977.68C501.993,2977.86 516.959,2992.81 517.158,3011.31L520.625,3333.2L520.625,4695" style="fill:none;fill-rule:nonzero;stroke:url(#_Linear1);stroke-width:3px;"/>
    <defs>
        <linearGradient id="_Linear1" x1="0" y1="0" x2="1" y2="0" gradientUnits="userSpaceOnUse" gradientTransform="matrix(-275.957,-477.233,477.233,-275.957,515.16,528.77)"><stop offset="0" style="stop-color:rgb(254,230,255);stop-opacity:1"/><stop offset="0.23" style="stop-color:rgb(226,239,241);stop-opacity:1"/><stop offset="0.51" style="stop-color:rgb(218,241,237);stop-opacity:1"/><stop offset="0.78" style="stop-color:rgb(226,239,241);stop-opacity:1"/><stop offset="1" style="stop-color:rgb(254,230,255);stop-opacity:1"/></linearGradient>
    </defs>
</svg>
