<?xml version="1.0" encoding="UTF-8"?>
<svg width="1024px" height="507px" viewBox="0 0 1024 507" version="1.1" xmlns="http://www.w3.org/2000/svg" xmlns:xlink="http://www.w3.org/1999/xlink">
    <title>end-use</title>
    <g id="end-use" stroke="none" stroke-width="1" fill="none" fill-rule="evenodd">
        <g id="Group" transform="translate(321.000000, 155.000000)">
            <line x1="14.5" y1="14" x2="14.5" y2="170" id="Path-24" stroke="#BF53FF"></line>
            <line x1="72.5" y1="14" x2="73" y2="77.5" id="Path-24-Copy" stroke="#BF53FF"></line>
            <line x1="131.5" y1="14" x2="131.5" y2="133.5" id="Path-24-Copy-2" stroke="#BF53FF"></line>
            <line x1="190.5" y1="14" x2="190.5" y2="163.5" id="Path-24-Copy-3" stroke="#BF53FF"></line>
            <line x1="249.5" y1="14" x2="250.5" y2="133.5" id="Path-24-Copy-4" stroke="#BF53FF"></line>
            <line x1="308.5" y1="14" x2="309.5" y2="191.5" id="Path-24-Copy-5" stroke="#BF53FF"></line>
            <line x1="367.5" y1="14" x2="367.5" y2="119.5" id="Path-24-Copy-6" stroke="#BF53FF"></line>
            <circle id="Oval" stroke="#BF52FF" fill="#F1D9FF" cx="14" cy="14" r="14"></circle>
            <circle id="Oval-Copy-7" stroke="#BF52FF" fill="#FFFFFF" cx="14" cy="170" r="14"></circle>
            <circle id="Oval-Copy" stroke="#BF52FF" fill="#F1D9FF" cx="73" cy="14" r="14"></circle>
            <circle id="Oval-Copy-8" stroke="#BF52FF" fill="#FFFFFF" cx="73" cy="78" r="14"></circle>
            <circle id="Oval-Copy-2" stroke="#BF52FF" fill="#F1D9FF" cx="132" cy="14" r="14"></circle>
            <circle id="Oval-Copy-9" stroke="#BF52FF" fill="#FFFFFF" cx="132" cy="134" r="14"></circle>
            <circle id="Oval-Copy-3" stroke="#BF52FF" fill="#F1D9FF" cx="191" cy="14" r="14"></circle>
            <circle id="Oval-Copy-10" stroke="#BF52FF" fill="#FFFFFF" cx="191" cy="164" r="14"></circle>
            <circle id="Oval-Copy-4" stroke="#BF52FF" fill="#F1D9FF" cx="250" cy="14" r="14"></circle>
            <circle id="Oval-Copy-11" stroke="#BF52FF" fill="#FFFFFF" cx="250" cy="136" r="14"></circle>
            <circle id="Oval-Copy-5" stroke="#BF52FF" fill="#F1D9FF" cx="309" cy="14" r="14"></circle>
            <circle id="Oval-Copy-12" stroke="#BF52FF" fill="#FFFFFF" cx="309" cy="184" r="14"></circle>
            <circle id="Oval-Copy-6" stroke="#BF52FF" fill="#F1D9FF" cx="368" cy="14" r="14"></circle>
            <circle id="Oval-Copy-13" stroke="#BF52FF" fill="#FFFFFF" cx="368" cy="111" r="14"></circle>
        </g>
    </g>
</svg>