<?xml version="1.0" encoding="UTF-8"?>
<svg width="1024px" height="507px" viewBox="0 0 1024 507" version="1.1" xmlns="http://www.w3.org/2000/svg" xmlns:xlink="http://www.w3.org/1999/xlink">
    <title>end-use</title>
    <g id="end-use" stroke="none" stroke-width="1" fill="none" fill-rule="evenodd">
        <g id="Group" transform="translate(239.000000, 188.000000)" stroke="#BE4FFF">
            <path d="M474,131 C474,68.5918233 423.408177,18 361,18 C298.591823,18 248,68.5918233 248,131 C299,131 423,131 474,131 Z" id="Oval"></path>
            <path d="M546,131 C546,99.5197693 520.480231,74 489,74 C457.519769,74 432,99.5197693 432,131 C457.725664,131 520.274336,131 546,131 Z" id="Oval-Copy"></path>
            <path d="M361,131 C361,58.6506978 302.349302,0 230,0 C157.650698,0 99,58.6506978 99,131 C158.123894,131 301.876106,131 361,131 Z" id="Oval-Copy-2"></path>
            <path d="M183,131 C183,94.5492065 153.450793,65 117,65 C80.5492065,65 51,94.5492065 51,131 C80.7876106,131 153.212389,131 183,131 Z" id="Oval-Copy-3"></path>
            <path d="M66,131 C66,112.774603 51.2253967,98 33,98 C14.7746033,98 0,112.774603 0,131 C14.8938053,131 51.1061947,131 66,131 Z" id="Oval-Copy-4"></path>
        </g>
    </g>
</svg>