<?xml version="1.0" encoding="UTF-8"?>
<svg width="1024px" height="507px" viewBox="0 0 1024 507" version="1.1" xmlns="http://www.w3.org/2000/svg" xmlns:xlink="http://www.w3.org/1999/xlink">
    <title>investment-opportunities</title>
    <g id="investment-opportunities" stroke="none" stroke-width="1" fill="none" fill-rule="evenodd">
        <rect id="Rectangle" stroke="#BF52FF" fill="#F8ECFF" x="129" y="77" width="64" height="49"></rect>
        <rect id="Rectangle-Copy-6" stroke="#BF52FF" fill="#F1D9FF" x="203" y="77" width="293" height="49"></rect>
        <rect id="Rectangle-Copy-9" stroke="#BF52FF" x="507" y="77" width="388" height="49"></rect>
        <rect id="Rectangle-Copy" stroke="#BF52FF" x="129" y="138" width="478" height="49"></rect>
        <rect id="Rectangle-Copy-7" stroke="#BF52FF" fill="#F8ECFF" x="617" y="138" width="88" height="49"></rect>
        <rect id="Rectangle-Copy-8" stroke="#BF52FF" fill="#F1D9FF" x="718" y="138" width="177" height="49"></rect>
        <rect id="Rectangle-Copy-2" stroke="#BF52FF" fill="#F1D9FF" x="129" y="199" width="146" height="49"></rect>
        <rect id="Rectangle-Copy-10" stroke="#BF52FF" x="285" y="199" width="262" height="49"></rect>
        <rect id="Rectangle-Copy-11" stroke="#BF52FF" fill="#F8ECFF" x="559" y="199" width="336" height="49"></rect>
        <rect id="Rectangle-Copy-3" stroke="#BF52FF" x="129" y="260" width="298" height="49"></rect>
        <rect id="Rectangle-Copy-12" stroke="#BF52FF" fill="#F1D9FF" x="437" y="260" width="298" height="49"></rect>
        <rect id="Rectangle-Copy-13" stroke="#BF52FF" fill="#F8ECFF" x="747" y="260" width="148" height="49"></rect>
        <rect id="Rectangle-Copy-4" stroke="#BF52FF" fill="#F1D9FF" x="129" y="321" width="204" height="49"></rect>
        <rect id="Rectangle-Copy-14" stroke="#BF52FF" x="343" y="321" width="442" height="49"></rect>
        <rect id="Rectangle-Copy-15" stroke="#BF52FF" fill="#F8ECFF" x="796" y="321" width="99" height="49"></rect>
        <rect id="Rectangle-Copy-5" stroke="#BF52FF" fill="#F1D9FF" x="129" y="382" width="443" height="49"></rect>
        <rect id="Rectangle-Copy-16" stroke="#BF52FF" fill="#F8ECFF" x="582" y="382" width="313" height="49"></rect>
    </g>
</svg>