<?xml version="1.0" encoding="UTF-8"?>
<svg width="1024px" height="507px" viewBox="0 0 1024 507" version="1.1" xmlns="http://www.w3.org/2000/svg" xmlns:xlink="http://www.w3.org/1999/xlink">
    <!-- Generator: Sketch 59.1 (86144) - https://sketch.com -->
    <title>investment-opportunities</title>
    <desc>Created with Sketch.</desc>
    <g id="investment-opportunities" stroke="none" stroke-width="1" fill="none" fill-rule="evenodd">
        <rect id="Rectangle" stroke="#BE4FFF" fill="#F8ECFF" x="202" y="52" width="186" height="107"></rect>
        <rect id="Rectangle-Copy" stroke="#BE4FFF" x="388" y="52" width="83" height="107"></rect>
        <rect id="Rectangle-Copy-2" stroke="#BE4FFF" fill="#F8ECFF" x="526" y="52" width="153" height="107"></rect>
        <rect id="Rectangle-Copy-11" stroke="#BE4FFF" x="202" y="349" width="186" height="107"></rect>
        <rect id="Rectangle-Copy-12" stroke="#BE4FFF" x="406" y="349" width="83" height="107"></rect>
        <rect id="Rectangle-Copy-13" stroke="#BE4FFF" x="526" y="349" width="77" height="107"></rect>
        <rect id="Rectangle-Copy-14" stroke="#BE4FFF" x="603" y="349" width="13" height="107"></rect>
        <rect id="Rectangle-Copy-5" stroke="#BE4FFF" fill="#F8ECFF" x="202" y="192" width="93" height="106"></rect>
        <rect id="Rectangle-Copy-6" stroke="#BE4FFF" x="295" y="192" width="152" height="106"></rect>
        <rect id="Rectangle-Copy-7" stroke="#BE4FFF" x="527" y="192" width="31" height="106"></rect>
        <rect id="Rectangle-Copy-8" stroke="#BE4FFF" x="603" y="192" width="42" height="106"></rect>
        <rect id="Rectangle-Copy-3" stroke="#BE4FFF" x="679" y="52" width="43" height="107"></rect>
        <rect id="Rectangle-Copy-4" stroke="#BE4FFF" x="781" y="52" width="42" height="107"></rect>
        <rect id="Rectangle-Copy-16" stroke="#BE4FFF" fill="#F8ECFF" x="708" y="349" width="14" height="107"></rect>
        <rect id="Rectangle-Copy-15" stroke="#BE4FFF" x="781" y="349" width="42" height="107"></rect>
        <rect id="Rectangle-Copy-10" stroke="#BE4FFF" x="658" y="192" width="21" height="106"></rect>
        <rect id="Rectangle-Copy-9" stroke="#BE4FFF" fill="#F8ECFF" x="781" y="192" width="42" height="106"></rect>
    </g>
</svg>