<?xml version="1.0" encoding="UTF-8"?>
<svg width="143px" height="344px" viewBox="0 0 143 344" version="1.1" xmlns="http://www.w3.org/2000/svg" xmlns:xlink="http://www.w3.org/1999/xlink">
    <title>Artboard</title>
    <defs>
        <linearGradient x1="-6.68178571%" y1="1.06476639%" x2="-6.68178571%" y2="100%" id="linearGradient-1">
            <stop stop-color="#5263FF" offset="0%"></stop>
            <stop stop-color="#7A0BBF" offset="24.3744721%"></stop>
            <stop stop-color="#7A0BBF" offset="72.965588%"></stop>
            <stop stop-color="#0BBFB0" offset="100%"></stop>
        </linearGradient>
        <linearGradient x1="-22.4865217%" y1="0%" x2="100%" y2="0%" id="linearGradient-2">
            <stop stop-color="#0BBFB0" stop-opacity="0.372049825" offset="0%"></stop>
            <stop stop-color="#A818FF" offset="100%"></stop>
        </linearGradient>
        <linearGradient x1="-22.4865217%" y1="0%" x2="100%" y2="0%" id="linearGradient-3">
            <stop stop-color="#0BBFB0" stop-opacity="0.372049825" offset="0%"></stop>
            <stop stop-color="#0BBFB0" offset="100%"></stop>
        </linearGradient>
        <linearGradient x1="-22.4865217%" y1="0%" x2="100%" y2="0%" id="linearGradient-4">
            <stop stop-color="#18FF99" stop-opacity="0" offset="0%"></stop>
            <stop stop-color="#0BBFB0" offset="100%"></stop>
        </linearGradient>
    </defs>
    <g id="Artboard" stroke="none" stroke-width="1" fill="none" fill-rule="evenodd">
        <g id="Group-30" transform="translate(-149.000000, 10.000000)">
            <path d="M219.549039,4.43290043 L220.263358,124.605912 C220.28951,129.005553 223.863498,132.55836 228.263217,132.55836 L244.675325,132.55836 C249.093603,132.55836 252.675325,136.140082 252.675325,140.55836 L252.675325,156.738708 C252.675325,161.156986 249.093603,164.738708 244.675325,164.738708 L207.932856,164.738708 C203.514578,164.738708 199.932856,168.32043 199.932856,172.738708 L199.932856,189.919056 C199.932856,193.785049 203.066863,196.919056 206.932856,196.919056 L211.111936,196.919056 C215.530214,196.919056 219.111936,200.500778 219.111936,204.919056 L219.111936,245.78551 L219.111936,246.977375 L219.111936,269.622805 L219.111936,269.622805 L219.549039,279.753655 L219.549039,297.759164 C219.549039,309.909429 209.699303,319.759164 197.549039,319.759164 C197.378422,319.759164 197.207811,319.757179 197.037241,319.75321 L193.939394,319.681124 L193.939394,319.681124" id="Path" stroke="url(#linearGradient-1)" stroke-width="0.5"></path>
            <line x1="218.320346" y1="54.8571429" x2="14.999698" y2="54.4028235" id="Path-3-Copy-2" stroke="url(#linearGradient-2)" stroke-width="0.4"></line>
            <path d="M218.320346,95.0857143 L137.591505,94.3587918 C127.886788,94.2714058 119.94872,102.067793 119.861334,111.772509 C119.860859,111.82525 119.860622,111.877993 119.860622,111.930736 C119.860622,121.723629 111.921913,129.662338 102.12902,129.662338 L36.5714286,129.662338 L36.5714286,129.662338" id="Path-3-Copy-3" stroke="url(#linearGradient-3)" stroke-width="0.4"></path>
            <line x1="192.831169" y1="319.722944" x2="90.358561" y2="320.831169" id="Path-3-Copy-4" stroke="url(#linearGradient-4)" stroke-width="0.4"></line>
            <path d="M216.103896,3.87878788 C216.103896,6.02098701 217.840485,7.75757576 219.982684,7.75757576 C222.124883,7.75757576 223.861472,6.02098701 223.861472,3.87878788 C223.861472,1.73658874 222.124883,0 219.982684,0 C217.840485,0 216.103896,1.73658874 216.103896,3.87878788 Z" id="Path" stroke="#524DFF" fill="#FFFFFF" fill-rule="nonzero"></path>
            <path d="M189.506494,319.722944 C189.506494,321.865143 191.243082,323.601732 193.385281,323.601732 C195.527481,323.601732 197.264069,321.865143 197.264069,319.722944 C197.264069,317.580745 195.527481,315.844156 193.385281,315.844156 C191.243082,315.844156 189.506494,317.580745 189.506494,319.722944 Z" id="Path-Copy-4" stroke="#0BBFB0" fill="#FFFFFF" fill-rule="nonzero"></path>
            <path d="M214.995671,221.090909 C214.995671,223.233108 216.73226,224.969697 218.874459,224.969697 C221.016658,224.969697 222.753247,223.233108 222.753247,221.090909 C222.753247,218.94871 221.016658,217.212121 218.874459,217.212121 C216.73226,217.212121 214.995671,218.94871 214.995671,221.090909 Z" id="Path" stroke="#A818FF" fill="#FFFFFF" fill-rule="nonzero"></path>
            <path d="M227.186147,165.679654 C227.186147,167.821853 228.922736,169.558442 231.064935,169.558442 C233.207134,169.558442 234.943723,167.821853 234.943723,165.679654 C234.943723,163.537455 233.207134,161.800866 231.064935,161.800866 C228.922736,161.800866 227.186147,163.537455 227.186147,165.679654 Z" id="Path-Copy" stroke="#A818FF" fill="#FFFFFF" fill-rule="nonzero"></path>
            <path d="M199.480519,166.787879 C199.480519,168.930078 201.217108,170.666667 203.359307,170.666667 C205.501506,170.666667 207.238095,168.930078 207.238095,166.787879 C207.238095,164.64568 205.501506,162.909091 203.359307,162.909091 C201.217108,162.909091 199.480519,164.64568 199.480519,166.787879 Z" id="Path-Copy-4" stroke="#A818FF" fill="#FFFFFF" fill-rule="nonzero"></path>
            <path d="M248.242424,153.489177 C248.242424,155.631377 249.979013,157.367965 252.121212,157.367965 C254.263411,157.367965 256,155.631377 256,153.489177 C256,151.346978 254.263411,149.61039 252.121212,149.61039 C249.979013,149.61039 248.242424,151.346978 248.242424,153.489177 Z" id="Path-Copy-3" stroke="#A818FF" fill="#FFFFFF" fill-rule="nonzero"></path>
            <path d="M216.103896,93.6450216 C216.103896,95.7872208 217.840485,97.5238095 219.982684,97.5238095 C222.124883,97.5238095 223.861472,95.7872208 223.861472,93.6450216 C223.861472,91.5028225 222.124883,89.7662338 219.982684,89.7662338 C217.840485,89.7662338 216.103896,91.5028225 216.103896,93.6450216 Z" id="Path-Copy-2" stroke="#0BBFB0" fill="#FFFFFF" fill-rule="nonzero"></path>
            <path d="M217.212121,42.6666667 C217.212121,44.1971255 218.452558,45.4372294 219.982684,45.4372294 C221.51281,45.4372294 222.753247,44.1971255 222.753247,42.6666667 C222.753247,41.1362078 221.51281,39.8961039 219.982684,39.8961039 C218.452558,39.8961039 217.212121,41.1362078 217.212121,42.6666667 Z" id="Path" stroke="#524DFF" fill="#FFFFFF" fill-rule="nonzero"></path>
            <path d="M217.212121,54.8571429 C217.212121,56.3876017 218.452558,57.6277056 219.982684,57.6277056 C221.51281,57.6277056 222.753247,56.3876017 222.753247,54.8571429 C222.753247,53.326684 221.51281,52.0865801 219.982684,52.0865801 C218.452558,52.0865801 217.212121,53.326684 217.212121,54.8571429 Z" id="Path-Copy-2" stroke="#524DFF" fill="#FFFFFF" fill-rule="nonzero"></path>
            <path d="M217.212121,65.9393939 C217.212121,67.4698528 218.452558,68.7099567 219.982684,68.7099567 C221.51281,68.7099567 222.753247,67.4698528 222.753247,65.9393939 C222.753247,64.4089351 221.51281,63.1688312 219.982684,63.1688312 C218.452558,63.1688312 217.212121,64.4089351 217.212121,65.9393939 Z" id="Path-Copy-3" stroke="#524DFF" fill="#FFFFFF" fill-rule="nonzero"></path>
            <circle id="Oval" fill="#0BBFB0" cx="207.792208" cy="84.7792208" r="2.77056277"></circle>
            <circle id="Oval-Copy" fill="#524DFF" cx="207.792208" cy="44.8831169" r="2.77056277"></circle>
        </g>
    </g>
</svg>