<?xml version="1.0" encoding="UTF-8" standalone="no"?>
<!DOCTYPE svg PUBLIC "-//W3C//DTD SVG 1.1//EN" "http://www.w3.org/Graphics/SVG/1.1/DTD/svg11.dtd">
<svg width="200px" height="350px" viewBox="0 0 143 344" version="1.1" xmlns="http://www.w3.org/2000/svg" xmlns:xlink="http://www.w3.org/1999/xlink" xml:space="preserve" xmlns:serif="http://www.serif.com/" style="fill-rule:evenodd;clip-rule:evenodd;">
    <g transform="matrix(1,0,0,1,-149,10)">
        <g id="Artboard">
            <g id="Group-30">
                <g id="Path" transform="matrix(1,0,0,1,0,-0.0960322)">
                    <path d="M219.549,4.433C219.549,4.433 219.894,62.436 219.984,77.558C219.995,79.533 218.41,81.147 216.435,81.171C216.434,81.171 216.433,81.171 216.432,81.171C214.186,81.198 212.38,83.027 212.38,85.273C212.38,88.271 212.38,92.327 212.38,95.27C212.38,97.39 214.088,99.114 216.208,99.135C216.442,99.137 216.676,99.14 216.908,99.142C218.686,99.159 220.121,100.6 220.131,102.378C220.172,109.213 220.263,124.606 220.263,124.606C220.29,129.006 223.863,132.558 228.263,132.558L244.675,132.558C249.094,132.558 252.675,136.14 252.675,140.558L252.675,156.739C252.675,161.157 249.094,164.739 244.675,164.739L207.933,164.739C203.515,164.739 199.933,168.32 199.933,172.739L199.933,189.919C199.933,193.785 203.067,196.919 206.933,196.919L211.112,196.919C215.53,196.919 219.112,200.501 219.112,204.919L219.112,269.623L219.549,279.754L219.549,297.759C219.549,309.909 209.699,319.759 197.549,319.759C197.378,319.759 197.208,319.757 197.037,319.753L193.939,319.681" style="fill:none;stroke:url(#_Linear1);stroke-width:0.5px;"/>
                </g>
                <path id="Path-3-Copy-2" d="M218.32,54.857L15,54.403" style="fill:none;stroke:url(#_Linear2);stroke-width:0.4px;"/>
                <g id="Path-3-Copy-3" transform="matrix(1,0,0,1,-9.49346,-7.39166)">
                    <path d="M218.32,95.086L137.592,94.359C127.887,94.271 119.949,102.068 119.861,111.773C119.861,111.825 119.861,111.878 119.861,111.931C119.861,121.724 111.922,129.662 102.129,129.662L36.571,129.662" style="fill:none;stroke:url(#_Linear3);stroke-width:0.4px;"/>
                </g>
                <g id="Path-3-Copy-31" serif:id="Path-3-Copy-3" transform="matrix(1,0,0,1,0,-70.1642)">
                    <path d="M218.32,95.086L137.592,94.359C127.887,94.271 119.949,102.068 119.861,111.773C119.861,111.825 119.861,111.878 119.861,111.931C119.861,121.724 111.922,129.662 102.129,129.662L36.571,129.662" style="fill:none;stroke:url(#_Linear4);stroke-width:0.4px;"/>
                </g>
                <path id="Path-3-Copy-4" d="M192.831,319.723L90.359,320.831" style="fill:none;stroke:url(#_Linear5);stroke-width:0.4px;"/>
                <path id="Path1" serif:id="Path" d="M216.104,3.879C216.104,6.021 217.84,7.758 219.983,7.758C222.125,7.758 223.861,6.021 223.861,3.879C223.861,1.737 222.125,0 219.983,0C217.84,0 216.104,1.737 216.104,3.879Z" style="fill:white;fill-rule:nonzero;stroke:rgb(82,77,255);stroke-width:1px;"/>
                <path id="Path-Copy-4" d="M189.506,319.723C189.506,321.865 191.243,323.602 193.385,323.602C195.527,323.602 197.264,321.865 197.264,319.723C197.264,317.581 195.527,315.844 193.385,315.844C191.243,315.844 189.506,317.581 189.506,319.723Z" style="fill:white;fill-rule:nonzero;stroke:rgb(11,191,176);stroke-width:1px;"/>
                <path id="Path2" serif:id="Path" d="M214.996,221.091C214.996,223.233 216.732,224.97 218.874,224.97C221.017,224.97 222.753,223.233 222.753,221.091C222.753,218.949 221.017,217.212 218.874,217.212C216.732,217.212 214.996,218.949 214.996,221.091Z" style="fill:white;fill-rule:nonzero;stroke:rgb(168,24,255);stroke-width:1px;"/>
                <path id="Path-Copy" d="M227.186,165.68C227.186,167.822 228.923,169.558 231.065,169.558C233.207,169.558 234.944,167.822 234.944,165.68C234.944,163.537 233.207,161.801 231.065,161.801C228.923,161.801 227.186,163.537 227.186,165.68Z" style="fill:white;fill-rule:nonzero;stroke:rgb(168,24,255);stroke-width:1px;"/>
                <path id="Path-Copy-41" serif:id="Path-Copy-4" d="M199.481,166.788C199.481,168.93 201.217,170.667 203.359,170.667C205.502,170.667 207.238,168.93 207.238,166.788C207.238,164.646 205.502,162.909 203.359,162.909C201.217,162.909 199.481,164.646 199.481,166.788Z" style="fill:white;fill-rule:nonzero;stroke:rgb(168,24,255);stroke-width:1px;"/>
                <path id="Path-Copy-3" d="M248.242,153.489C248.242,155.631 249.979,157.368 252.121,157.368C254.263,157.368 256,155.631 256,153.489C256,151.347 254.263,149.61 252.121,149.61C249.979,149.61 248.242,151.347 248.242,153.489Z" style="fill:white;fill-rule:nonzero;stroke:rgb(168,24,255);stroke-width:1px;"/>
                <g id="Path-Copy-2" transform="matrix(1,0,0,1,-9.34227,-5.83478)">
                    <path d="M216.104,93.645C216.104,95.787 217.84,97.524 219.983,97.524C222.125,97.524 223.861,95.787 223.861,93.645C223.861,91.503 222.125,89.766 219.983,89.766C217.84,89.766 216.104,91.503 216.104,93.645Z" style="fill:white;fill-rule:nonzero;stroke:rgb(11,191,176);stroke-width:1px;"/>
                </g>
                <g id="Path-Copy-21" serif:id="Path-Copy-2" transform="matrix(1,0,0,1,0,-68.8875)">
                    <path d="M216.104,93.645C216.104,95.787 217.84,97.524 219.983,97.524C222.125,97.524 223.861,95.787 223.861,93.645C223.861,91.503 222.125,89.766 219.983,89.766C217.84,89.766 216.104,91.503 216.104,93.645Z" style="fill:white;fill-rule:nonzero;stroke:rgb(11,191,176);stroke-width:1px;"/>
                </g>
                <path id="Path3" serif:id="Path" d="M217.212,42.667C217.212,44.197 218.453,45.437 219.983,45.437C221.513,45.437 222.753,44.197 222.753,42.667C222.753,41.136 221.513,39.896 219.983,39.896C218.453,39.896 217.212,41.136 217.212,42.667Z" style="fill:white;fill-rule:nonzero;stroke:rgb(82,77,255);stroke-width:1px;"/>
                <path id="Path-Copy-22" serif:id="Path-Copy-2" d="M217.212,54.857C217.212,56.388 218.453,57.628 219.983,57.628C221.513,57.628 222.753,56.388 222.753,54.857C222.753,53.327 221.513,52.087 219.983,52.087C218.453,52.087 217.212,53.327 217.212,54.857Z" style="fill:white;fill-rule:nonzero;stroke:rgb(82,77,255);stroke-width:1px;"/>
                <path id="Path-Copy-31" serif:id="Path-Copy-3" d="M217.212,65.939C217.212,67.47 218.453,68.71 219.983,68.71C221.513,68.71 222.753,67.47 222.753,65.939C222.753,64.409 221.513,63.169 219.983,63.169C218.453,63.169 217.212,64.409 217.212,65.939Z" style="fill:white;fill-rule:nonzero;stroke:rgb(82,77,255);stroke-width:1px;"/>
                <g id="Oval" transform="matrix(1,0,0,1,0,-6.33546)">
                    <circle cx="207.792" cy="84.779" r="2.771" style="fill:rgb(11,191,176);"/>
                </g>
                <circle id="Oval-Copy" cx="207.792" cy="44.883" r="2.771" style="fill:rgb(82,77,255);"/>
            </g>
        </g>
    </g>
    <defs>
        <linearGradient id="_Linear1" x1="0" y1="0" x2="1" y2="0" gradientUnits="userSpaceOnUse" gradientTransform="matrix(1.91026e-14,311.969,-311.969,1.91026e-14,190.015,7.79039)"><stop offset="0" style="stop-color:rgb(82,99,255);stop-opacity:1"/><stop offset="0.24" style="stop-color:rgb(122,11,191);stop-opacity:1"/><stop offset="0.73" style="stop-color:rgb(122,11,191);stop-opacity:1"/><stop offset="1" style="stop-color:rgb(11,191,176);stop-opacity:1"/></linearGradient>
        <linearGradient id="_Linear2" x1="0" y1="0" x2="1" y2="0" gradientUnits="userSpaceOnUse" gradientTransform="matrix(249.04,0,0,249.04,-30.72,54.4028)"><stop offset="0" style="stop-color:rgb(11,191,176);stop-opacity:0.37"/><stop offset="1" style="stop-color:rgb(168,24,255);stop-opacity:1"/></linearGradient>
        <linearGradient id="_Linear3" x1="0" y1="0" x2="1" y2="0" gradientUnits="userSpaceOnUse" gradientTransform="matrix(222.618,0,0,222.618,-4.29758,94.3581)"><stop offset="0" style="stop-color:rgb(11,191,176);stop-opacity:0.37"/><stop offset="1" style="stop-color:rgb(11,191,176);stop-opacity:1"/></linearGradient>
        <linearGradient id="_Linear4" x1="0" y1="0" x2="1" y2="0" gradientUnits="userSpaceOnUse" gradientTransform="matrix(222.618,0,0,222.618,-4.29758,94.3581)"><stop offset="0" style="stop-color:rgb(11,191,176);stop-opacity:0.37"/><stop offset="1" style="stop-color:rgb(11,191,176);stop-opacity:1"/></linearGradient>
        <linearGradient id="_Linear5" x1="0" y1="0" x2="1" y2="0" gradientUnits="userSpaceOnUse" gradientTransform="matrix(125.515,0,0,125.515,67.316,319.723)"><stop offset="0" style="stop-color:rgb(24,255,153);stop-opacity:0"/><stop offset="1" style="stop-color:rgb(11,191,176);stop-opacity:1"/></linearGradient>
    </defs>
</svg>
