<?xml version="1.0" encoding="UTF-8"?>
<svg width="1024px" height="507px" viewBox="0 0 1024 507" version="1.1" xmlns="http://www.w3.org/2000/svg" xmlns:xlink="http://www.w3.org/1999/xlink">
    <!-- Generator: Sketch 59.1 (86144) - https://sketch.com -->
    <title>transition-risk</title>
    <desc>Created with Sketch.</desc>
    <g id="transition-risk" stroke="none" stroke-width="1" fill="none" fill-rule="evenodd" stroke-linecap="round">
        <line x1="40.2361462" y1="68" x2="148.236146" y2="104" id="Path-Copy" stroke="#BE4FFF" stroke-width="6" fill-rule="nonzero" transform="translate(94.236146, 86.000000) rotate(0.000000) translate(-94.236146, -86.000000) "></line>
        <line x1="48.2361462" y1="52" x2="140.236146" y2="120" id="Path-Copy-2" stroke-opacity="0.3" stroke="#BE4FFF" stroke-width="6" fill-rule="nonzero" transform="translate(94.236146, 86.000000) rotate(-64.000000) translate(-94.236146, -86.000000) "></line>
        <line x1="68.2361462" y1="35" x2="120.236146" y2="137" id="Path-Copy-3" stroke-opacity="0.3" stroke="#BE4FFF" stroke-width="6" fill-rule="nonzero" transform="translate(94.236146, 86.000000) rotate(-64.000000) translate(-94.236146, -86.000000) "></line>
        <line x1="51.2361462" y1="49" x2="137.236146" y2="123" id="Path-Copy-4" stroke-opacity="0.3" stroke="#BE4FFF" stroke-width="6" fill-rule="nonzero" transform="translate(94.236146, 86.000000) rotate(-64.000000) translate(-94.236146, -86.000000) "></line>
        <line x1="37.4608447" y1="86.1095928" x2="151.460845" y2="86.1095928" id="Path-Copy-5" stroke-opacity="0.5" stroke="#BE4FFF" stroke-width="6" fill-rule="nonzero" transform="translate(94.460845, 86.109593) rotate(-64.000000) translate(-94.460845, -86.109593) "></line>
        <line x1="40.2361462" y1="240" x2="148.236146" y2="276" id="Path-Copy" stroke-opacity="0.3" stroke="#BE4FFF" stroke-width="6" fill-rule="nonzero" transform="translate(94.236146, 258.000000) rotate(-64.000000) translate(-94.236146, -258.000000) "></line>
        <line x1="48.2361462" y1="224" x2="140.236146" y2="292" id="Path-Copy-2" stroke="#BE4FFF" stroke-width="6" fill-rule="nonzero" transform="translate(94.236146, 258.000000) rotate(-64.000000) translate(-94.236146, -258.000000) "></line>
        <line x1="68.2361462" y1="207" x2="120.236146" y2="309" id="Path-Copy-3" stroke-opacity="0.3" stroke="#BE4FFF" stroke-width="6" fill-rule="nonzero" transform="translate(94.236146, 258.000000) rotate(-64.000000) translate(-94.236146, -258.000000) "></line>
        <line x1="51.2361462" y1="221" x2="137.236146" y2="295" id="Path-Copy-4" stroke-opacity="0.3" stroke="#BE4FFF" stroke-width="6" fill-rule="nonzero" transform="translate(94.236146, 258.000000) rotate(-64.000000) translate(-94.236146, -258.000000) "></line>
        <line x1="37.4608447" y1="258.109593" x2="151.460845" y2="258.109593" id="Path-Copy-5" stroke-opacity="0.3" stroke="#BE4FFF" stroke-width="6" fill-rule="nonzero" transform="translate(94.460845, 258.109593) rotate(-64.000000) translate(-94.460845, -258.109593) "></line>
        <line x1="68.7803021" y1="376.088312" x2="119.69199" y2="477.911688" id="Path-Copy" stroke-opacity="0.3" stroke="#BE4FFF" stroke-width="6" fill-rule="nonzero"></line>
        <line x1="37.6676037" y1="435.485281" x2="150.804689" y2="418.514719" id="Path-Copy-2" stroke="#BE4FFF" stroke-width="6" fill-rule="nonzero"></line>
        <line x1="68.2361462" y1="376" x2="120.236146" y2="478" id="Path-Copy-3" stroke-opacity="0.3" stroke="#BE4FFF" stroke-width="6" fill-rule="nonzero" transform="translate(94.236146, 427.000000) rotate(-64.000000) translate(-94.236146, -427.000000) "></line>
        <line x1="37.6676037" y1="431.242641" x2="150.804689" y2="422.757359" id="Path-Copy-4" stroke-opacity="0.3" stroke="#BE4FFF" stroke-width="6" fill-rule="nonzero"></line>
        <line x1="37.4608447" y1="427.109593" x2="151.460845" y2="427.109593" id="Path-Copy-5" stroke-opacity="0.3" stroke="#BE4FFF" stroke-width="6" fill-rule="nonzero"></line>
        <line x1="250.928166" y1="128.501252" x2="313.653953" y2="33.4987482" id="Path-Copy" stroke-opacity="0.3" stroke="#BE4FFF" stroke-width="6" fill-rule="nonzero"></line>
        <line x1="243.669005" y1="123.194039" x2="320.913113" y2="38.8059606" id="Path-Copy-2" stroke-opacity="0.3" stroke="#BE4FFF" stroke-width="6" fill-rule="nonzero"></line>
        <line x1="256.291059" y1="30" x2="308.291059" y2="132" id="Path-Copy-3" stroke="#BE4FFF" stroke-width="6" fill-rule="nonzero" transform="translate(282.291059, 81.000000) rotate(-64.000000) translate(-282.291059, -81.000000) "></line>
        <line x1="226.307548" y1="90.1567695" x2="338.274571" y2="71.8432305" id="Path-Copy-4" stroke-opacity="0.3" stroke="#BE4FFF" stroke-width="6" fill-rule="nonzero"></line>
        <line x1="225.515758" y1="81.1095928" x2="339.515758" y2="81.1095928" id="Path-Copy-5" stroke-opacity="0.3" stroke="#BE4FFF" stroke-width="6" fill-rule="nonzero" transform="translate(282.515758, 81.109593) rotate(-64.000000) translate(-282.515758, -81.109593) "></line>
        <line x1="242.348536" y1="210.446396" x2="322.233583" y2="291.553604" id="Path-Copy" stroke-opacity="0.3" stroke="#BE4FFF" stroke-width="6" fill-rule="nonzero"></line>
        <line x1="225.460845" y1="257.505899" x2="339.121274" y2="244.494101" id="Path-Copy-2" stroke="#BE4FFF" stroke-width="6" fill-rule="nonzero"></line>
        <line x1="256.291059" y1="200" x2="308.291059" y2="302" id="Path-Copy-3" stroke-opacity="0.3" stroke="#BE4FFF" stroke-width="6" fill-rule="nonzero" transform="translate(282.291059, 251.000000) rotate(-64.000000) translate(-282.291059, -251.000000) "></line>
        <line x1="257.166402" y1="200.139882" x2="307.415716" y2="301.860118" id="Path-Copy-4" stroke-opacity="0.3" stroke="#BE4FFF" stroke-width="6" fill-rule="nonzero"></line>
        <line x1="228.621199" y1="232.552208" x2="336.410317" y2="269.666978" id="Path-Copy-5" stroke-opacity="0.3" stroke="#BE4FFF" stroke-width="6" fill-rule="nonzero"></line>
        <line x1="226.73334" y1="434.383045" x2="337.848779" y2="409.616955" id="Path-Copy" stroke-opacity="0.3" stroke="#BE4FFF" stroke-width="6" fill-rule="nonzero"></line>
        <line x1="236.291059" y1="388" x2="328.291059" y2="456" id="Path-Copy-2" stroke-opacity="0.3" stroke="#BE4FFF" stroke-width="6" fill-rule="nonzero" transform="translate(282.291059, 422.000000) rotate(-64.000000) translate(-282.291059, -422.000000) "></line>
        <line x1="256.291059" y1="371" x2="308.291059" y2="473" id="Path-Copy-3" stroke-opacity="0.3" stroke="#BE4FFF" stroke-width="6" fill-rule="nonzero" transform="translate(282.291059, 422.000000) rotate(-64.000000) translate(-282.291059, -422.000000) "></line>
        <line x1="226.744456" y1="410.485885" x2="337.837663" y2="433.514115" id="Path-Copy-4" stroke="#BE4FFF" stroke-width="6" fill-rule="nonzero"></line>
        <line x1="225.515758" y1="422.109593" x2="339.515758" y2="422.109593" id="Path-Copy-5" stroke-opacity="0.3" stroke="#BE4FFF" stroke-width="6" fill-rule="nonzero" transform="translate(282.515758, 422.109593) rotate(-64.000000) translate(-282.515758, -422.109593) "></line>
        <line x1="436.430211" y1="128.794746" x2="504.042081" y2="37.205254" id="Path-Copy" stroke-opacity="0.3" stroke="#BE4FFF" stroke-width="6" fill-rule="nonzero"></line>
        <line x1="424.236146" y1="49" x2="516.236146" y2="117" id="Path-Copy-2" stroke="#BE4FFF" stroke-width="6" fill-rule="nonzero" transform="translate(470.236146, 83.000000) rotate(-64.000000) translate(-470.236146, -83.000000) "></line>
        <line x1="444.236146" y1="32" x2="496.236146" y2="134" id="Path-Copy-3" stroke-opacity="0.3" stroke="#BE4FFF" stroke-width="6" fill-rule="nonzero" transform="translate(470.236146, 83.000000) rotate(-64.000000) translate(-470.236146, -83.000000) "></line>
        <line x1="414.021667" y1="75.3886675" x2="526.450625" y2="90.6113325" id="Path-Copy-4" stroke-opacity="0.3" stroke="#BE4FFF" stroke-width="6" fill-rule="nonzero"></line>
        <line x1="413.460845" y1="83.1095928" x2="527.460845" y2="83.1095928" id="Path-Copy-5" stroke-opacity="0.3" stroke="#BE4FFF" stroke-width="6" fill-rule="nonzero" transform="translate(470.460845, 83.109593) rotate(-64.000000) translate(-470.460845, -83.109593) "></line>
        <line x1="420.182195" y1="227.896459" x2="520.290098" y2="282.103541" id="Path-Copy" stroke-opacity="0.3" stroke="#BE4FFF" stroke-width="6" fill-rule="nonzero"></line>
        <line x1="424.236146" y1="221" x2="516.236146" y2="289" id="Path-Copy-2" stroke-opacity="0.3" stroke="#BE4FFF" stroke-width="6" fill-rule="nonzero" transform="translate(470.236146, 255.000000) rotate(-64.000000) translate(-470.236146, -255.000000) "></line>
        <line x1="444.236146" y1="204" x2="496.236146" y2="306" id="Path-Copy-3" stroke="#BE4FFF" stroke-width="6" fill-rule="nonzero" transform="translate(470.236146, 255.000000) rotate(-64.000000) translate(-470.236146, -255.000000) "></line>
        <line x1="414.808586" y1="267.074171" x2="525.663706" y2="242.925829" id="Path-Copy-4" stroke-opacity="0.3" stroke="#BE4FFF" stroke-width="6" fill-rule="nonzero"></line>
        <line x1="413.460845" y1="255.109593" x2="527.460845" y2="255.109593" id="Path-Copy-5" stroke-opacity="0.3" stroke="#BE4FFF" stroke-width="6" fill-rule="nonzero" transform="translate(470.460845, 255.109593) rotate(-64.000000) translate(-470.460845, -255.109593) "></line>
        <line x1="417.121931" y1="404.126392" x2="523.799758" y2="443.873608" id="Path-Copy" stroke-opacity="0.3" stroke="#BE4FFF" stroke-width="6" fill-rule="nonzero"></line>
        <line x1="424.460845" y1="390" x2="516.460845" y2="458" id="Path-Copy-2" stroke-opacity="0.3" stroke="#BE4FFF" stroke-width="6" fill-rule="nonzero" transform="translate(470.460845, 424.000000) rotate(-64.000000) translate(-470.460845, -424.000000) "></line>
        <line x1="444.460845" y1="373" x2="496.460845" y2="475" id="Path-Copy-3" stroke-opacity="0.3" stroke="#BE4FFF" stroke-width="6" fill-rule="nonzero" transform="translate(470.460845, 424.000000) rotate(-64.000000) translate(-470.460845, -424.000000) "></line>
        <line x1="414.477333" y1="433.156769" x2="526.444356" y2="414.843231" id="Path-Copy-4" stroke-opacity="0.3" stroke="#BE4FFF" stroke-width="6" fill-rule="nonzero"></line>
        <line x1="459.80943" y1="480.062342" x2="481.561656" y2="368.156843" id="Path-Copy-5" stroke="#BE4FFF" stroke-width="6" fill-rule="nonzero"></line>
    </g>
</svg>